<svg xmlns="http://www.w3.org/2000/svg" xmlns:xlink="http://www.w3.org/1999/xlink" version="1.1" width="68.65339660644531" height="88.27433013916016" viewBox="0.4790545701980591 -0.15700000524520874 68.65339660644531 88.27433013916016">
  <!-- Exported by Scratch - http://scratch.mit.edu/ -->
  <g id="ID0.1154214246198535">
    <g id="Bottom_1_">
      <path id="ID0.8444251050241292" fill="#20891D" d="M 38.888 83.9532 C 20.7403 83.9517 4.3056 72.0597 2.0593 70.3669 C 24.3026 61.3377 36.996 23.7832 38.7959 18.123 C 46.3541 56.6107 62.9678 72.047 64.7976 73.6468 C 57.4514 80.4853 48.7367 83.9532 38.891 83.9532 C 38.891 83.9532 38.8888 83.9532 38.888 83.9532 Z " stroke-width="0.749006724891963"/>
      <path id="ID0.994631611276418" d="M 38.7532 18.8705 C 42.9087 39.5655 49.6497 53.3158 54.6284 61.2643 C 59.3823 68.8532 63.367 72.6394 64.5153 73.6521 C 57.2372 80.3639 48.6169 83.7659 38.8873 83.7659 C 21.3875 83.7659 5.4748 72.6611 2.4346 70.4141 C 14.8104 65.2258 24.0861 51.2942 29.7217 40.4261 C 34.6127 30.9946 37.6694 22.2013 38.7532 18.8705 M 38.8378 17.3575 C 38.8378 17.3575 26.0276 60.7617 1.6841 70.3153 C 1.6841 70.3153 19.1554 84.1404 38.8888 84.1404 C 47.6147 84.1404 56.7818 81.4388 65.0793 73.6401 C 65.0785 73.6401 46.8058 58.8674 38.8378 17.3575 L 38.8378 17.3575 Z " stroke-width="0.749006724891963"/>
    </g>
    <path id="Snow_10_" fill="#FFFFFF" stroke="#000000" stroke-width="0.3745033624459815" d="M 67.3076 71.2986 C 66.2694 70.6432 62.8158 69.9721 62.1342 71.3832 C 62.0054 71.6499 62.1462 71.9165 62.3357 72.1008 C 63.1259 72.8715 60.7605 73.386 60.368 73.9074 C 60.1074 74.2534 59.9823 74.6901 59.8917 75.1065 C 59.5366 76.7311 58.9247 77.2097 57.2679 77.4022 C 55.7511 77.5782 53.9588 78.7017 53.3835 80.2312 C 52.1454 80.0185 50.9043 79.9968 50.4272 80.0724 C 49.6804 80.1908 49.0378 80.5698 48.4199 80.978 C 48.0903 81.2499 47.766 81.5322 47.4499 81.8221 C 46.3916 82.7696 45.859 82.3599 44.8673 82.3959 C 43.9618 82.4288 43.0937 82.6385 42.3297 83.0497 C 42.2016 82.9688 42.0653 82.8969 41.9215 82.8378 C 39.7224 81.924 37.4252 83.607 35.1235 82.7958 C 34.0696 82.4251 33.0428 81.8184 31.8728 81.9816 C 31.4212 82.0461 30.622 82.2768 29.8797 82.3367 C 29.2475 81.7465 28.9449 81.0012 28.3615 80.2275 C 27.2275 78.7265 24.8958 78.8029 23.3888 79.5541 C 22.6465 79.9234 21.4871 79.0478 20.6467 79.1639 C 20.5935 79.1721 20.5291 79.1631 20.4722 79.1646 C 20.1726 78.9954 19.8483 78.8605 19.5539 78.7407 C 18.8236 78.4441 18.0948 78.0194 17.3211 78.0202 C 16.9316 77.7917 16.5751 77.5633 16.2897 77.3685 C 15.9804 77.1573 15.6598 76.591 15.2913 76.1267 C 16.4987 76.3851 17.8499 76.281 18.7397 75.3777 C 18.7937 75.323 18.7457 75.2121 18.6648 75.2526 C 17.0837 76.0488 15.0584 75.1852 13.5903 74.4421 C 13.2248 74.2571 12.8615 74.1111 12.4983 73.9808 C 11.902 73.7006 11.2669 73.4969 10.6669 73.3628 C 10.3029 73.1913 9.8528 73.1224 9.4917 73.0602 C 9.0019 72.9763 8.6004 72.7561 8.1885 72.5457 C 7.7473 72.0214 7.4147 71.3952 6.859 70.939 C 6.0823 70.3024 5.5565 69.7901 5.6029 68.8695 C 5.6583 68.8523 5.713 68.8381 5.7669 68.8283 C 6.1145 68.7707 6.4276 68.6156 6.6238 68.3228 C 7.0777 67.6487 4.3019 66.8622 2.7522 67.4434 C 1.5732 67.8853 1.0991 69.0673 0.9868 70.1736 C 0.8976 71.0476 1.5927 72.1457 2.3575 72.5277 C 3.6712 73.1831 5.0456 73.431 5.889 74.735 C 6.4133 75.5447 6.8485 76.045 7.7773 76.4203 C 8.2993 76.6307 8.9158 76.6045 9.4723 76.5791 C 13.0106 76.4158 13.1896 78.349 14.6359 80.5578 C 15.3258 81.6116 15.4576 81.5727 16.6874 82.1195 C 17.1631 82.3307 18.936 84.1365 19.7074 84.371 C 21.8541 85.0204 23.5925 83.7448 25.6725 84.1485 C 26.6477 84.5927 27.2267 85.9199 28.2049 86.4008 C 29.6168 87.0951 30.8092 86.6614 32.2578 86.3027 C 34.0112 85.8675 36.1107 87.4464 37.9345 87.5955 C 39.3898 87.7145 40.8414 87.343 42.0728 86.582 C 42.3125 86.4352 42.5057 86.2652 42.6652 86.084 C 43.227 86.2772 43.7528 86.6225 44.4089 86.9266 C 45.7766 87.5595 46.9526 87.0674 48.166 86.3042 C 48.861 85.8675 49.4235 85.1747 50.037 84.6346 C 51.2489 83.5636 52.7619 83.9942 54.1977 84.0819 C 55.2216 84.1433 56.0672 83.6025 56.4245 82.6715 C 56.5608 82.315 56.5369 82.0086 56.4163 81.7367 C 56.5054 81.5772 56.5945 81.4229 56.6897 81.2843 C 57.7615 79.7316 59.8025 80.2822 61.3687 79.7316 C 62.5199 79.3257 63.0352 77.8561 63.6075 76.9154 C 64.4037 75.6061 66.2642 75.9319 67.5188 75.3994 C 69.3718 74.6099 68.6378 72.139 67.3076 71.2986 Z "/>
    <path id="Snow_9_" fill="#FFFFFF" stroke="#000000" stroke-width="0.3745033624459815" d="M 55.089 71.1503 C 55.1602 70.975 54.9452 70.8132 54.7962 70.9323 C 53.4921 71.9569 52.4862 73.264 50.6542 73.1973 C 49.2438 73.1456 47.9884 71.9787 46.5241 72.4266 C 45.9878 72.5906 45.5677 72.8191 45.0958 73.1104 C 44.0644 73.7463 43.4772 73.3726 42.4832 72.9674 C 41.55 72.5869 40.3164 73.2842 39.6348 73.8392 C 39.5546 73.9044 39.6318 74.0384 39.7284 73.995 C 40.2714 73.7516 40.7912 73.7224 41.2983 73.8047 C 42.2353 74.3058 43.2195 75.1619 44.2689 75.2833 C 44.5602 75.317 44.8868 75.2114 45.1534 75.0953 C 46.0964 74.6803 46.9481 74.2819 48.0281 74.3882 C 49.7366 74.556 51.4481 75.1312 52.663 73.968 C 53.7513 73.3988 54.6157 72.3412 55.089 71.1503 Z "/>
    <path id="Snow_8_" fill="#FFFFFF" stroke="#000000" stroke-width="0.3745033624459815" d="M 34.4898 68.9759 C 31.5792 69.4785 28.9974 66.8405 26.0448 66.5207 C 24.2187 66.3214 22.6218 65.6226 21.0339 64.7507 C 20.1127 64.2444 14.4921 64.7388 15.1452 62.4992 C 15.2935 61.9914 15.0486 61.4259 14.4711 61.3615 C 11.2968 61.0125 12.9537 65.5222 14.5236 66.5484 C 16.4897 67.8329 20.4257 67.0554 22.2039 68.8126 C 24.7393 71.3188 25.9894 69.0927 29.1921 69.3459 C 31.18 70.1256 32.3672 70.6177 34.6217 69.429 C 34.8524 69.3085 34.7677 68.9287 34.4898 68.9759 Z "/>
    <path id="Snow_7_" fill="#FFFFFF" stroke="#000000" stroke-width="0.3745033624459815" d="M 57.5465 61.366 C 56.9967 61.0177 56.4245 61.1121 55.9893 61.5877 C 55.9167 61.6671 55.8448 61.748 55.7699 61.8281 C 55.5691 62.0491 55.5826 62.3614 55.704 62.6146 C 55.2605 62.7052 54.8239 62.8236 54.4659 62.9666 C 53.209 63.4655 52.4885 64.6092 50.9448 64.5583 C 49.5074 64.5118 48.2536 64.6511 46.8155 64.3665 C 46.4882 64.3006 46.1758 64.3006 45.871 64.3343 C 45.2785 64.1141 44.7145 63.8976 44.2689 63.7486 C 42.3537 63.1074 40.7111 64.9373 38.6498 64.2864 C 37.2027 63.8295 36.1946 64.0534 34.8628 64.6556 C 34.7393 64.7111 34.7977 64.8893 34.9273 64.8773 C 39.5838 64.4249 36.6073 66.1192 39.47 66.1821 C 41.4811 66.227 43.3266 65.1185 45.3272 66.4195 C 45.9429 66.8195 46.5848 67.0704 47.2447 67.2262 C 48.4753 68.9909 51.6706 67.8853 53.3865 67.7146 C 55.8163 67.4704 57.7562 66.7439 58.3352 64.1718 C 58.9554 63.24 58.9239 62.2378 57.5465 61.366 Z "/>
    <g id="Middle_1_">
      <path id="ID0.028397698886692524" fill="#20891D" d="M 45.8178 58.1012 C 30.0063 58.1005 16.5654 49.0996 14.5782 47.705 C 30.1501 39.9018 38.9711 16.1111 40.4617 11.7991 C 47.5166 47.4803 55.2448 55.1958 56.9578 56.5126 C 53.4135 57.5664 49.6677 58.1012 45.8186 58.1012 C 45.8193 58.1012 45.8186 58.1012 45.8178 58.1012 Z " stroke-width="0.749006724891963"/>
      <path id="ID0.5585026354528964" d="M 40.4115 12.5062 C 47.1001 45.9568 54.3909 54.5352 56.5683 56.4317 C 53.1409 57.4151 49.5284 57.9139 45.8171 57.9139 C 30.6242 57.9139 17.6215 49.5685 14.9423 47.7297 C 29.7471 40.0891 38.3997 18.129 40.4115 12.5062 M 40.5096 11.0703 C 40.5096 11.0703 31.5867 39.2285 14.2157 47.6758 C 14.2157 47.6758 28.5015 58.2885 45.8178 58.2885 C 49.5703 58.2885 53.4629 57.7904 57.3855 56.5785 C 57.3855 56.5785 48.4386 51.6305 40.5096 11.0703 L 40.5096 11.0703 Z " stroke-width="0.749006724891963"/>
    </g>
    <path id="Snow_3_" fill="#FFFFFF" stroke="#000000" stroke-width="0.3745033624459815" d="M 52.2877 47.5371 C 52.2862 47.1865 52.0878 46.7701 51.7559 46.6113 C 51.6428 46.5581 51.529 46.5034 51.4151 46.4518 C 51.0699 46.287 50.6489 46.3432 50.4444 46.7027 C 49.8774 47.6944 48.7741 47.3094 47.727 47.5056 C 47.2477 47.5962 46.7301 47.794 46.3721 48.1423 C 45.4051 49.086 44.6037 48.2247 43.5289 48.2381 C 41.6084 48.2644 40.4826 49.635 38.4701 49.0433 C 37.0619 48.6276 35.9654 48.94 34.9407 49.9099 C 34.8284 50.017 34.9153 50.202 35.0621 50.2035 C 36.5107 50.2313 37.4559 50.5601 38.8086 51.014 C 39.4378 51.2237 40.1696 51.4993 40.8512 51.3151 C 41.9297 51.0185 42.8637 50.3099 44.0779 50.7705 C 45.0254 51.1308 45.6755 51.1795 46.638 50.8582 C 47.3121 50.6335 47.7038 49.835 48.4663 49.7804 C 49.0977 49.7324 49.7097 49.6905 50.3373 49.5983 C 51.4713 49.4313 52.2952 48.689 52.2877 47.5371 Z "/>
    <path id="Snow_2_" fill="#FFFFFF" stroke="#000000" stroke-width="0.3745033624459815" d="M 42.9521 44.0265 C 41.4249 45.6488 39.8377 43.2999 38.3585 43.1906 C 37.1248 43.1007 36.1616 43.6377 35.0958 43.4228 C 35.0493 43.3861 35.0014 43.3516 34.9437 43.3202 C 34.6816 43.1801 34.4292 43.0917 34.1805 43.0385 C 34.1011 42.9876 34.0202 42.9337 33.9371 42.8723 C 32.9379 42.1075 31.3448 43.1254 30.3246 43.24 C 30.1711 43.2573 30.0123 43.2498 29.8632 43.2498 C 29.0446 42.9509 28.2641 42.4214 27.59 41.9862 C 27.5128 41.936 27.4132 42.0184 27.4372 42.1023 C 27.7915 43.3831 28.6176 44.3665 29.7426 45.0436 C 30.3478 45.4054 31.0429 45.5043 31.732 45.4369 C 32.1814 45.3919 32.8218 45.0549 33.3641 44.9949 C 34.1708 45.4893 34.9078 46.3799 36.05 45.8436 C 37.0709 45.3612 38.0319 44.5088 39.2071 44.7995 C 39.8333 44.9567 40.3815 45.1215 41.0204 45.1957 C 41.905 45.2983 42.6113 44.7732 43.057 44.1081 C 43.0997 44.046 43.0045 43.9718 42.9521 44.0265 Z "/>
    <path id="Snow_1_" fill="#FFFFFF" stroke="#000000" stroke-width="0.3745033624459815" d="M 57.7016 54.0107 C 56.835 53.0408 55.5901 53.4183 54.4883 53.2198 C 54.1453 53.1599 52.5132 54.4362 52.1806 55.2653 C 51.8413 56.1042 48.4453 55.9919 48.1607 56.0548 C 46.3279 56.4533 45.7909 56.6547 43.8217 56.087 C 43.7371 56.0623 43.6569 56.0503 43.573 56.0308 C 43.4832 55.9162 41.5208 55.7911 40.5823 55.9297 C 38.6251 56.2173 39.0648 55.675 37.4597 55.5147 C 35.1752 55.2826 33.248 55.4376 30.9785 54.4257 C 30.2063 54.0826 29.1779 53.6542 28.318 53.6512 C 28.1735 53.6512 28.0371 53.6422 27.9001 53.6355 C 26.8283 53.3239 25.5587 52.8865 24.4337 52.3247 C 23.5731 51.6881 22.7761 50.9016 21.7904 50.1376 C 21.7904 50.1361 21.7897 50.1361 21.7897 50.1361 C 21.0407 48.6471 17.2754 47.1371 17.1503 47.0053 C 17.1294 46.9836 17.2275 45.8825 16.5833 45.8878 C 15.2344 45.8975 12.1717 45.8923 12.7799 48.1258 C 12.9754 48.8396 13.9348 49.0636 14.5356 49.2336 C 15.8164 49.5946 17.008 51.3503 18.4978 51.1428 C 18.882 51.0866 19.2206 51.1668 19.5292 51.3405 C 19.673 51.4476 19.8168 51.554 19.9599 51.6604 C 20.2827 51.9607 23.3177 58.1101 25.7205 57.4427 C 28.1031 56.7776 29.7539 56.8135 30.9433 57.7992 C 32.3559 58.9677 33.8757 60.7488 35.4943 60.8522 C 37.1286 60.9593 38.5547 60.2844 39.5014 62.0214 C 39.9673 62.8745 40.8137 63.046 41.6623 63.0932 C 42.3304 63.1306 42.9678 62.4363 43.403 62.0274 C 44.0105 61.4551 47.2814 61.6559 47.393 61.5899 C 48.0394 61.6162 48.8004 61.5338 49.1561 60.9286 C 49.2131 60.8312 49.261 60.7129 49.3089 60.596 C 50.234 60.0005 52.3499 59.3497 52.3874 59.3407 C 53.3311 59.2635 54.3138 59.1137 55.1033 58.7572 C 55.5017 58.707 55.8927 58.6029 56.3376 58.4299 C 57.2012 58.0958 58.0259 57.6075 58.3966 56.7229 C 58.7921 55.7821 58.339 54.723 57.7016 54.0107 Z "/>
    <g id="Top_1_">
      <path id="ID0.8162294235080481" fill="#20891D" d="M 47.1833 37.2758 C 35.2561 37.2751 25.298 30.6891 23.6719 29.5543 C 32.4638 24.3045 38.8955 15.8243 42.7926 4.3442 C 42.9798 3.7945 43.245 2.6103 43.4412 1.677 C 45.7804 29.7798 50.6025 35.7052 52.1185 36.8901 C 50.5111 37.1462 48.8543 37.2758 47.1863 37.2758 C 47.1863 37.2758 47.1848 37.2758 47.1833 37.2758 Z " stroke-width="0.749006724891963"/>
      <path id="ID0.5223679905757308" d="M 43.3596 2.9219 C 45.5901 28.2787 49.9066 35.0221 51.7065 36.7642 C 50.2287 36.98 48.7112 37.0886 47.184 37.0886 C 35.7939 37.0886 26.2013 31.0486 24.018 29.5648 C 32.7207 24.2806 39.0955 15.8183 42.9708 4.4042 C 43.0832 4.0731 43.2233 3.5166 43.3596 2.9219 M 43.5214 0.343 C 43.5214 0.343 42.9416 3.3263 42.6158 4.2836 C 40.3164 11.0583 35.334 22.4897 23.3289 29.5401 C 23.3289 29.5401 33.9813 37.4631 47.1833 37.4631 C 48.9629 37.4631 50.7867 37.32 52.6383 36.9934 C 52.639 36.9927 46.223 34.7494 43.5214 0.343 L 43.5214 0.343 Z " stroke-width="0.749006724891963"/>
    </g>
    <path id="Snow_6_" fill="#FFFFFF" stroke="#000000" stroke-width="0.3745033624459815" d="M 54.0561 37.4802 C 53.6165 34.8781 50.21 32.8056 47.8139 32.1225 C 46.6545 31.7915 44.6389 32.7292 45.4171 34.1696 C 45.7639 34.8167 45.2426 34.3021 44.5775 34.2564 C 44.0284 34.2197 43.6584 34.2879 43.1873 34.3898 C 42.3259 34.2272 41.4683 34.0325 40.6122 33.843 C 39.7628 32.9022 38.7165 32.0371 37.3466 32.1757 C 36.0133 32.312 34.4801 32.6124 33.2008 32.0424 C 31.9133 31.4679 31.0144 30.2298 29.7793 29.686 C 28.5592 29.1475 27.1031 27.8412 25.8268 27.6337 C 23.8749 27.3154 20.07 27.5334 22.0646 30.7226 C 22.8308 31.9487 25.3272 31.5855 26.3616 32.7247 C 26.605 32.9914 27.0267 33.2108 27.3795 33.2872 C 28.8056 33.5966 29.8453 33.8962 31.0017 34.8804 C 32.129 35.8376 33.7071 35.5642 35.131 35.7859 C 35.5677 35.944 36.5751 36.2922 36.6357 36.3342 C 37.2042 36.7237 38.1375 36.7956 38.7802 36.8712 C 39.8939 37.0008 40.6062 37.8404 41.7522 37.7947 C 42.8877 37.7498 44.8216 37.4951 45.6508 37.6285 C 46.8829 37.8262 47.5495 38.2179 48.8019 38.0479 C 50.6819 37.7932 51.6923 39.4119 53.6082 38.337 C 53.8764 38.1872 54.1108 37.7955 54.0561 37.4802 Z "/>
    <path id="Snow_5_" fill="#FFFFFF" stroke="#000000" stroke-width="0.3745033624459815" d="M 46.802 24.6527 C 45.9347 24.5763 45.0606 24.8856 44.364 25.3889 C 44.1236 25.5635 43.1716 24.8744 42.9551 24.7478 C 42.5462 24.5096 41.9994 24.5418 41.55 24.5763 C 40.2782 24.6796 39.5396 25.2002 38.1847 24.8107 C 37.2964 24.5561 36.6028 24.6759 35.9676 25.3238 C 35.9317 25.3605 35.9571 25.4114 35.9991 25.4256 C 37.2642 25.8466 38.4626 26.824 39.7651 26.9896 C 40.225 27.0487 40.6564 26.9304 41.0916 26.7978 C 42.2054 26.457 42.6405 27.3319 43.5626 27.5221 C 44.6913 28.1693 46.5571 28.1221 47.572 27.7483 C 49.4812 27.0458 48.4378 24.7957 46.802 24.6527 Z "/>
    <path id="Snow_4_" fill="#FFFFFF" stroke="#000000" stroke-width="0.3745033624459815" d="M 40.5987 19.0898 C 40.6609 19.0179 40.6384 18.9288 40.5628 18.8786 C 40.0909 18.5632 39.652 18.5782 39.2363 18.1243 C 38.8805 17.7341 38.5098 17.2884 37.972 17.1491 C 37.3795 16.9956 36.8867 17.1634 36.3511 17.4158 C 36.241 17.4742 36.1414 17.5461 36.0515 17.6337 C 36.0058 17.6704 35.9751 17.6996 35.9556 17.7236 C 35.7834 17.7019 35.6126 17.6922 35.4373 17.7476 C 34.1992 18.1348 34.5168 20.0133 35.7384 20.1699 C 36.2493 20.235 36.6702 20.1444 37.1271 19.9107 C 37.3084 19.8171 37.4859 19.7107 37.6739 19.6343 C 37.9098 19.5385 38.1772 19.6141 38.4259 19.5092 C 38.5038 19.477 38.5772 19.4299 38.6453 19.3752 C 39.2947 19.6987 40.0969 19.6898 40.5987 19.0898 Z "/>
  </g>
</svg>