<svg xmlns="http://www.w3.org/2000/svg" xmlns:xlink="http://www.w3.org/1999/xlink" version="1.1" width="100.35814595222473" height="158.32118153572083" viewBox="-0.3678157329559326 -0.42143791913986206 100.35814595222473 158.32118153572083">
  <!-- Exported by Scratch - http://scratch.mit.edu/ -->
  <g id="ID0.9505157433450222">
    <path id="R_Foot" fill="#F7941E" stroke="#000000" stroke-width="2.205275774002075" stroke-linejoin="round" d="M 62.0663 142.2584 C 62.5559 147.8944 62.6404 153.0341 68.6432 155.2394 C 70.4809 155.9745 73.5977 157.6887 76.1705 156.2215 C 79.1212 154.5381 76.6447 151.0795 75.2965 149.119 C 76.8887 151.2023 80.5642 153.04 83.259 152.3049 C 86.9345 151.0795 84.9747 145.4436 81.9124 144.7085 C 83.6266 144.8312 86.3229 146.1787 87.4255 144.0962 C 89.3853 140.2979 80.0746 139.0733 77.8693 138.2154 C 76.4763 137.7178 75.1899 137.237 74.1476 136.5754 C 74.1476 136.5747 74.1454 136.5747 74.1454 136.5747 C 73.8278 136.4247 73.5507 136.2049 73.3037 135.9469 C 72.3047 135.0597 71.6769 133.8585 71.6328 132.0576 C 71.4718 131.2284 71.4329 130.6212 71.4329 130.6212 L 62.3648 135.7734 C 62.1193 138.2184 61.8208 139.8106 62.0663 142.2584 Z "/>
    <path id="L_Foot" fill="#F7941E" stroke="#000000" stroke-width="2.205275774002075" stroke-linejoin="round" d="M 29.4981 132.6214 C 29.4893 132.7162 29.4797 132.8169 29.4665 132.9228 C 30.0553 136.3373 27.1061 137.6244 24.2606 138.2154 C 22.4228 138.583 10.4776 140.8912 13.7855 144.6886 C 15.0116 146.1588 17.8903 145.4436 19.3604 145.076 C 17.3992 146.5462 13.8472 151.4471 18.2578 152.0594 C 21.0747 152.5497 24.1385 150.3444 26.3438 148.997 C 25.1177 150.4672 22.8205 154.2669 24.5362 156.1046 C 26.374 158.0644 30.6323 155.3673 32.4701 154.1427 C 37.0026 151.4471 37.9156 138.0824 37.4246 136.1226 L 37.4092 136.1131 C 38.0134 136.2998 29.4981 132.6214 29.4981 132.6214 Z "/>
    <g id="R_Wing">
      <path id="ID0.6222410774789751" fill="#0062A2" d="M 89.9506 104.1527 C 88.0482 104.1527 85.2894 102.3348 84.1485 101.0323 L 84.0992 100.9764 L 84.0434 100.9279 C 78.1443 95.7852 80.9141 87.8241 81.5294 86.2804 L 81.5742 86.1724 C 82.1586 85.0874 83.8589 81.5861 83.2906 78.5193 C 82.6739 75.1798 76.508 72.2365 74.5592 71.3838 C 68.4977 60.7426 70.8514 55.4419 71.8291 53.9467 C 80.8671 56.0858 92.469 61.8783 96.4054 71.497 C 97.9403 74.9865 99.5244 81.3869 93.0174 85.3476 C 88.1944 88.1615 86.2259 91.8429 87.7659 95.1861 C 88.1474 96.0131 88.8127 96.9099 89.5176 97.8589 C 90.89 99.7076 92.4455 101.8019 91.7119 103.1265 C 91.3186 103.8366 90.7754 104.1527 89.9506 104.1527 L 89.9506 104.1527 Z " stroke-width="0.7350919246673584"/>
      <path id="ID0.614870726596564" d="M 72.4106 55.2257 C 81.0552 57.4509 91.7251 62.9721 95.3851 71.9138 L 95.3961 71.9403 L 95.4079 71.9667 C 97.0898 75.7899 97.9418 81.0481 92.4602 84.3949 C 87.1727 87.4875 84.9902 91.7973 86.7647 95.647 C 87.194 96.5783 87.8923 97.5193 88.6326 98.5153 C 89.4448 99.6099 91.137 101.8879 90.7474 102.5914 C 90.5504 102.9472 90.3718 103.0501 89.9513 103.0501 C 88.4062 103.0501 85.9355 101.3983 84.9784 100.306 L 84.8807 100.195 L 84.7689 100.0965 C 79.4299 95.4426 81.9873 88.1108 82.5541 86.6884 L 82.5769 86.6348 C 83.2355 85.3976 84.9975 81.6795 84.3749 78.3201 C 83.6994 74.6653 77.962 71.7006 75.3392 70.5237 C 70.5471 61.9482 71.5593 57.1443 72.4106 55.2257 M 71.3902 52.7154 C 71.3902 52.7154 65.7462 58.38 73.7859 72.2519 C 73.7859 72.2519 81.6205 75.5488 82.2064 78.72 C 82.729 81.5398 80.9714 84.972 80.5767 85.6968 C 80.5767 85.6968 80.5554 85.7468 80.5194 85.8357 C 80.5061 85.8409 80.4966 85.8416 80.4966 85.8416 C 80.4966 85.8416 80.4995 85.8526 80.5054 85.8717 C 79.9754 87.2015 76.7821 96.0594 83.3193 101.7585 C 84.4999 103.1074 87.516 105.2554 89.9506 105.2554 C 91.0532 105.2554 92.0368 104.8143 92.6763 103.6595 C 94.22 100.8727 89.8712 97.1201 88.7671 94.7237 C 87.1433 91.2011 90.6504 88.0042 93.5908 86.2885 C 99.226 82.8586 100.1213 77.2043 97.4265 71.0787 C 93.3394 61.0932 81.4875 54.9332 71.3902 52.7154 L 71.3902 52.7154 Z " stroke-width="0.7350919246673584"/>
    </g>
    <g id="L_Wing">
      <path id="ID0.2179628792218864" fill="#0062A2" d="M 8.0305 102.2246 C 7.0785 102.2246 6.4875 101.8681 6.1156 101.069 C 5.4768 99.6966 7.1748 97.7155 8.6729 95.9682 C 9.4426 95.0707 10.1696 94.2231 10.6077 93.4241 C 12.3793 90.1977 10.6724 86.3878 6.0413 83.2313 C -0.1555 78.8362 1.8726 72.5622 3.6346 69.2145 C 8.2458 59.8745 20.2161 54.9082 29.3805 53.4049 C 30.2266 54.9846 32.1672 60.5206 25.4485 70.6061 C 23.4446 71.3198 17.0875 73.8243 16.2385 77.1138 C 15.4578 80.1307 16.9089 83.7444 17.4161 84.8669 L 17.4521 84.9786 C 17.9579 86.5605 20.1654 94.695 13.9186 99.4129 L 13.859 99.4584 L 13.8061 99.5106 C 12.6887 100.6199 9.9888 102.2246 8.0305 102.2246 L 8.0305 102.2246 Z " stroke-width="0.7350919246673584"/>
      <path id="ID0.5727051049470901" d="M 28.7505 54.6333 C 29.4731 56.5592 30.1788 61.3792 24.731 69.6924 C 22.0325 70.6825 16.1003 73.2384 15.1711 76.8367 C 14.3133 80.1512 15.8195 83.9965 16.387 85.2675 L 16.4024 85.3138 C 16.8685 86.7722 18.9076 94.2635 13.2548 98.533 L 13.1357 98.6226 L 13.0298 98.7278 C 12.0463 99.704 9.6094 101.1219 8.0305 101.1219 C 7.4034 101.1219 7.2608 100.9169 7.1153 100.603 C 6.7764 99.8752 8.623 97.7207 9.5102 96.6857 C 10.3181 95.7433 11.0811 94.8531 11.5743 93.9548 C 13.6142 90.2389 11.739 85.7872 6.6808 82.3315 C 1.447 78.6083 2.6658 73.4229 4.6108 69.7276 L 4.6241 69.7019 L 4.6365 69.6762 C 8.9177 61.0043 19.9676 56.2424 28.7505 54.6333 M 29.9164 52.2053 C 19.689 53.7107 7.435 59.0254 2.6592 68.7 C -0.4576 74.6219 0.0393 80.3247 5.4202 84.1413 C 8.2334 86.0584 11.5075 89.4935 9.6411 92.8926 C 8.3715 95.2059 3.7713 98.6454 5.1158 101.5336 C 5.7245 102.8406 6.8014 103.3265 8.0305 103.3265 C 10.4122 103.3265 13.3643 101.5027 14.5838 100.292 C 21.5047 95.0655 18.9385 86.0048 18.5033 84.6419 C 18.5107 84.6221 18.5143 84.6125 18.5143 84.6125 C 18.5143 84.6125 18.5048 84.6096 18.4923 84.6044 C 18.4622 84.5133 18.4445 84.4618 18.4445 84.4618 C 18.1012 83.7113 16.5891 80.1645 17.3073 77.388 C 18.1137 74.2654 26.16 71.5249 26.16 71.5249 C 35.1502 58.2506 29.9164 52.2053 29.9164 52.2053 L 29.9164 52.2053 Z " stroke-width="0.7350919246673584"/>
    </g>
    <g id="Body_1_">
      <g id="Body">
        <path id="ID0.8879663362167776" fill="#0062A2" d="M 48.9442 138.4896 C 38.6772 138.4896 31.377 134.5789 27.939 132.2479 L 27.9757 132.1935 C 25.5382 130.6285 18.1453 121.9221 16.2988 116.5082 C 14.6779 111.6441 14.1089 105.6832 14.6514 99.2651 C 14.6735 98.8799 15.2638 89.1069 17.4933 85.2844 C 17.6933 84.9183 21.7818 76.8 24.4789 71.436 L 24.5252 71.3441 L 24.5884 71.261 C 24.6649 71.1611 32.1944 61.191 29.8318 53.5042 C 22.8852 43.3753 21.0489 32.9833 24.2187 21.7423 C 28.4741 7.0089 40.3833 1.7838 49.289 1.7838 C 49.8631 1.7838 50.4416 1.8044 51.0098 1.8456 C 51.5773 1.8044 52.1566 1.7838 52.7307 1.7838 C 61.6378 1.7838 73.547 7.0089 77.7995 21.7357 C 81.0141 33.1289 79.266 43.1688 72.301 53.3388 L 72.2444 53.4226 L 72.1724 53.4939 C 72.1312 53.5372 67.298 58.8564 74.7408 71.6992 C 74.9797 72.1556 80.0702 81.9133 81.5169 85.4219 C 83.3333 89.8265 83.8361 97.6508 84.0507 100.9926 C 84.0882 101.5748 84.111 101.9717 84.1316 102.1158 L 84.1463 102.251 C 84.3823 107.5761 83.8037 112.3711 82.4269 116.503 C 80.3562 122.5668 76.3867 129.9684 73.1067 131.7569 C 64.9097 136.2248 56.781 138.4903 48.9457 138.4903 C 48.9457 138.4896 48.9449 138.4896 48.9442 138.4896 Z " stroke-width="0.7350919246673584"/>
        <path id="ID0.68726069573313" d="M 52.7299 2.8865 C 62.3097 2.8865 72.942 8.8907 76.7388 22.0415 C 80.276 34.5763 77.1254 44.3412 71.3902 52.7154 C 71.3902 52.7154 65.7462 58.38 73.7859 72.2519 C 73.7859 72.2519 79.0521 82.3389 80.4966 85.8416 C 82.6217 90.9953 82.9135 101.5733 83.0444 102.2996 C 83.2605 107.1813 82.7798 111.955 81.3801 116.1538 C 79.0969 122.8388 75.2157 129.3502 72.5782 130.7881 C 63.5498 135.7095 55.5961 137.3877 48.9442 137.3877 C 38.9609 137.3877 31.9077 133.6071 28.5579 131.3364 C 28.5579 131.3364 28.5572 131.3372 28.5564 131.3372 C 28.3969 131.3372 19.6508 122.9189 17.3426 116.1531 C 15.6688 111.1295 15.252 105.2576 15.7504 99.3585 C 15.7504 99.3585 16.3245 89.4788 18.446 85.8409 C 18.618 85.5468 25.4639 71.9322 25.4639 71.9322 C 25.4639 71.9322 33.5536 61.3777 30.8338 53.0153 C 25.0273 44.6066 21.7238 34.6557 25.2801 22.0422 C 29.0791 8.89 39.7093 2.8865 49.289 2.8865 C 49.8668 2.8865 50.4409 2.9085 51.0098 2.9519 C 51.5788 2.9085 52.1514 2.8865 52.7299 2.8865 M 52.7299 0.6812 C 52.1558 0.6812 51.578 0.701 51.0091 0.7407 C 50.4409 0.701 49.8623 0.6812 49.2882 0.6812 C 40.0003 0.6812 27.5846 6.115 23.1609 21.4299 C 19.9081 32.9657 21.7612 43.6142 28.824 53.9842 C 30.8676 61.0999 23.785 70.4965 23.7122 70.5921 L 23.5872 70.7553 L 23.4939 70.9405 C 20.8534 76.1913 16.8464 84.1487 16.523 84.7595 C 14.2368 88.7239 13.6208 98.0044 13.5503 99.2004 C 12.9997 105.756 13.587 111.8587 15.2498 116.8492 C 16.3098 119.9579 18.6033 123.6055 22.0707 127.7058 C 23.4549 129.3421 24.6921 130.6506 25.4874 131.4599 C 26.4078 132.3972 26.951 132.9507 27.4501 133.2491 C 31.0447 135.6602 38.5103 139.593 48.9442 139.593 C 56.9663 139.593 65.2728 137.2819 73.6337 132.7243 C 77.1967 130.7822 81.2772 123.2761 83.4671 116.8669 C 84.8917 112.5916 85.4893 107.6628 85.2475 102.2025 L 85.2408 102.054 L 85.2225 101.9519 C 85.207 101.8034 85.1784 101.355 85.1504 100.9213 C 84.9321 97.5259 84.4212 89.5737 82.535 85.0014 C 81.0699 81.4472 75.9574 71.647 75.7405 71.2316 L 75.7185 71.1883 L 75.6942 71.1464 C 68.9718 59.5474 72.6892 54.6024 72.9729 54.2547 L 73.142 54.1003 L 73.2103 53.9629 C 80.276 43.6458 82.1248 33.0091 78.8617 21.4439 C 74.4372 6.115 62.02 0.6812 52.7299 0.6812 L 52.7299 0.6812 Z " stroke-width="0.7350919246673584"/>
      </g>
      <path id="Belly" fill="#FFFFFF" d="M 72.2907 124.2957 C 75.8427 118.3591 76.9314 111.5081 76.9314 100.3597 C 76.9314 87.4955 63.4277 71.3235 63.4277 63.2375 C 63.4277 55.1515 73.5771 45.5953 73.5771 30.5259 C 73.5771 15.4337 68.5234 10.0249 63.0947 10.2984 C 57.816 10.5645 52.1794 16.3144 50.4908 16.3144 C 48.734 16.3144 43.015 10.2477 37.8627 10.4337 C 32.978 10.6101 28.6064 16.6048 28.6064 31.6286 C 28.6064 47.1691 37.862 54.4164 37.5451 63.2375 C 37.2283 72.0586 22.4258 87.8631 22.0582 99.9921 C 21.6907 112.1211 24.2635 118.737 28.6064 125.7203 C 30.4596 128.6989 29.8561 130.3837 28.5572 131.3364 C 34.1402 135.1214 50.4173 143.4177 72.5782 130.7888 C 71.1829 129.5413 70.3604 127.5117 72.2907 124.2957 Z " stroke-width="0.7350919246673584"/>
    </g>
    <g id="Beak_1_">
      <path id="Beak" fill="#F7941E" stroke="#000000" stroke-width="2.205275774002075" d="M 51.0179 51.4746 C 47.1726 51.4746 37.0034 45.5938 37.0034 35.1798 C 37.0034 30.4017 48.0481 24.9297 50.4901 24.9297 C 52.9306 24.9297 65.0604 28.0112 65.0604 36.4353 C 65.0604 44.8595 55.7218 51.4746 51.0179 51.4746 Z "/>
      <path id="Smile" fill="#231F20" d="M 39.3314 38.7487 C 40.0577 39.7058 47.0969 48.1365 51.3068 48.1365 C 55.5167 48.1365 60.4484 40.9164 61.7532 38.068 C 62.2832 36.9109 60.3646 35.8031 59.8118 36.8602 C 58.5357 39.3 55.3094 46.2216 51.4604 46.2216 C 47.613 46.2216 42.9841 39.2618 40.8104 37.3696 C 40.0467 36.7058 38.6066 37.7916 39.3314 38.7487 Z " stroke-width="0.7350919246673584"/>
    </g>
    <path id="R_Eye" fill="#231F20" d="M 63.4263 17.825 C 64.1952 17.825 64.8928 18.2234 65.397 18.8659 C 65.902 19.5091 66.2145 20.3978 66.2145 21.3777 C 66.2145 22.3576 65.902 23.2463 65.397 23.8895 C 64.8928 24.532 64.1952 24.9304 63.4263 24.9304 C 62.6574 24.9304 61.9598 24.532 61.4555 23.8895 C 60.9505 23.2463 60.6381 22.3576 60.6381 21.3777 C 60.6381 20.3978 60.9505 19.5091 61.4555 18.8659 C 61.9598 18.2234 62.6574 17.825 63.4263 17.825 Z " stroke-width="0.7350919246673584"/>
    <path id="L_Eye" fill="#231F20" d="M 38.0222 17.825 C 38.7911 17.825 39.4887 18.2234 39.993 18.8659 C 40.498 19.5091 40.8104 20.3978 40.8104 21.3777 C 40.8104 22.3576 40.498 23.2463 39.993 23.8895 C 39.4887 24.532 38.7911 24.9304 38.0222 24.9304 C 37.2533 24.9304 36.5557 24.532 36.0514 23.8895 C 35.5464 23.2463 35.234 22.3576 35.234 21.3777 C 35.234 20.3978 35.5464 19.5091 36.0514 18.8659 C 36.5557 18.2234 37.2533 17.825 38.0222 17.825 Z " stroke-width="0.7350919246673584"/>
  </g>
</svg>